<?xml version="1.0" encoding="UTF-8"?>
<svg width="167px" height="159px" viewBox="0 0 167 159" version="1.1" xmlns="http://www.w3.org/2000/svg" xmlns:xlink="http://www.w3.org/1999/xlink">
    <!-- Generator: Sketch 55 (78076) - https://sketchapp.com -->
    <title>Desktop HD Copy 2</title>
    <desc>Created with Sketch.</desc>
    <g id="Desktop-HD-Copy-2" stroke="none" stroke-width="1" fill="none" fill-rule="evenodd">
        <g id="02_mammut_red_left_RGB" fill="#D6232E">
            <g id="Group-9">
                <path d="M79.309,159 C120.004,159 153.529,128.354 158.087,88.88 C163.556,84.51 166.456,78.479 166.456,71.418 C166.456,66.316 164.723,58.426 156.462,52.93 C155.501,52.289 154.454,51.727 153.36,51.251 C141.929,21.497 113.09,0.378 79.309,0.378 C35.511,0.378 0,35.889 0,79.687 C0,123.489 35.511,159 79.309,159 L79.309,159 Z M79.304,149.729 C56.831,149.729 36.842,139.126 24.029,122.661 L31.937,122.656 L31.077,116.269 L41.68,95.305 C41.68,95.305 50.415,96.499 50.63,96.582 L50.379,97.557 L42.489,97.095 L37.428,106.869 L35.767,122.68 L53.843,122.675 L50.603,115.321 L54.68,100.659 L59.599,100.678 L61.1,102.888 L64.51,100.993 L65.7,103.162 L70.033,101.373 L66.995,122.661 L82.425,122.661 L81.336,116.415 L85.821,106.201 L77.067,97.872 L77.542,92.555 L78.577,92.125 L78.677,96.93 L87.605,105.409 L87.024,122.666 L107.292,122.666 L103.682,117.065 C103.649,116.928 99.769,95.127 99.801,94.715 C99.833,94.303 104.024,77.783 104.157,77.577 L108.28,75.536 C108.45,75.601 114.687,82.859 114.925,82.895 C115.163,82.927 117.208,80.95 117.382,80.918 L120.512,84.048 L109.951,97.845 L116.115,108.713 L117.241,105.002 L122.219,106.096 L116.572,98.257 L129.404,89.233 L129.477,89.132 C130.868,90.038 132.296,90.834 133.746,91.452 C136.986,92.825 140.716,93.58 144.249,93.58 C145.242,93.58 146.972,93.415 148.006,93.292 C141.677,125.462 113.328,149.729 79.304,149.729 L79.304,149.729 Z M99.806,54.536 L99.256,55.397 L96.373,52.582 L96.387,44.771 L96.767,44.373 L102.579,45.604 L102.908,46.185 L103.238,47.334 L97.874,45.755 L97.746,52.098 L99.806,54.536 Z M113.429,50.285 L113.589,49.91 L114.989,49.759 L116.362,50.565 L116.54,50.981 L116.288,51.269 L115.259,52.025 L113.429,50.285 Z M155.68,54.102 C162.819,58.857 165.157,65.629 165.047,71.418 C164.919,77.857 162.425,83.7 157.021,87.933 C149.589,93.749 140.167,92.637 134.296,90.153 C128.296,87.612 122.082,81.605 118.577,76.04 C118.151,72.456 122.892,68.347 124.887,70.795 C126.791,73.129 129.857,77.024 131.12,78.264 C134.236,81.325 137.645,83.902 141.691,84.404 C158.682,86.51 163.839,67.693 154.508,57.9 C149.584,52.734 143.356,51.836 138.007,53.456 C143.375,49.036 151.351,51.219 155.68,54.102 L155.68,54.102 Z M9.276,79.692 C9.276,41.019 40.631,9.663 79.304,9.663 C107.324,9.663 131.486,26.123 142.684,49.897 C139.943,50.56 137.339,52.112 135.879,53.612 L136.703,54.976 C139.027,54.235 141.512,53.703 144.482,54.093 C147.603,62.023 149.333,70.654 149.333,79.692 C149.333,80.598 149.301,81.489 149.269,82.387 C147.937,82.767 146.084,83.155 144.258,83.155 C143.484,83.155 142.679,83.106 141.865,83.005 C138.583,82.597 135.737,80.584 133.454,78.529 C133.417,75.889 133.243,63.83 133.184,63.675 L119.524,42.419 L122.119,42.075 L122.151,41.737 L115.776,34.717 L115.845,34.516 L119.153,33.221 L119.153,33.02 L113.117,30.461 L113.19,30.224 L114.687,28.759 L114.586,28.553 L107.53,27.327 L107.095,27.428 L104.601,28.823 L104.157,28.897 L95.303,28.077 L95.097,28.352 C95.133,28.517 95.408,29.473 95.44,29.711 C95.472,29.949 95.573,30.737 95.573,30.832 L95.408,31.038 L90.603,31.587 L90.397,31.825 L86.887,38.095 L86.612,38.332 C86.48,38.402 53.605,48.075 53.348,48.125 C53.092,48.176 52.785,48.382 52.429,48.638 C52.067,48.894 23.965,70.864 23.865,71.001 L23.626,71.478 L19.128,85.411 L21.558,86.602 L24.189,81.801 L24.853,84.016 L24.917,84.565 C24.894,84.684 20.13,104.06 17.833,113.253 C12.383,103.286 9.276,91.855 9.276,79.692 L9.276,79.692 Z" id="Fill-8"></path>
            </g>
        </g>
    </g>
</svg>